<svg width="100%" height="100%" viewBox="0 0 333 61" version="1.1" xmlns="http://www.w3.org/2000/svg" xmlns:xlink="http://www.w3.org/1999/xlink" xml:space="preserve" xmlns:serif="http://www.serif.com/" style="fill-rule:evenodd;clip-rule:evenodd;stroke-linejoin:round;stroke-miterlimit:2;"><g id="g3388"><g id="g1146"><g><path id="path52016" d="M14.837,40.251c-3.341,-0.014 -9.964,-8.659 -9.959,-9.777c0.003,-0.695 6.646,4.323 9.983,4.337c3.349,0.014 10.079,-4.95 10.076,-4.254c-0.005,1.118 -6.754,9.708 -10.1,9.694Z" style="fill-rule:nonzero;"/><path id="path52014" d="M54.208,20.485c3.341,0.014 9.964,8.659 9.959,9.777c-0.003,0.695 -6.646,-4.323 -9.983,-4.337c-3.349,-0.014 -10.079,4.95 -10.076,4.254c0.005,-1.118 6.754,-9.708 10.1,-9.694Z" style="fill-rule:nonzero;"/><path id="path52018" d="M49.64,14.348c3.145,-1.129 12.325,4.729 12.703,5.781c0.235,0.655 -7.723,-1.789 -10.864,-0.66c-3.152,1.132 -7.779,8.098 -8.014,7.443c-0.378,-1.052 3.027,-11.433 6.175,-12.564Z" style="fill-rule:nonzero;"/><path id="path52020" d="M19.405,46.388c-3.144,1.129 -12.325,-4.729 -12.703,-5.781c-0.235,-0.654 7.723,1.789 10.864,0.66c3.152,-1.132 7.779,-8.098 8.014,-7.443c0.378,1.052 -3.027,11.433 -6.175,12.564Z" style="fill-rule:nonzero;"/><path id="path52022" d="M43.25,10.144c2.568,-2.137 13.198,0.228 13.913,1.088c0.445,0.534 -7.869,0.96 -10.435,3.095c-2.574,2.142 -4.539,10.27 -4.984,9.735c-0.715,-0.859 -1.066,-11.778 1.506,-13.918Z" style="fill-rule:nonzero;"/><path id="path52024" d="M25.796,50.592c-2.569,2.137 -13.199,-0.228 -13.914,-1.088c-0.445,-0.534 7.869,-0.96 10.435,-3.095c2.574,-2.142 4.539,-10.27 4.984,-9.735c0.715,0.86 1.066,11.778 -1.505,13.918Z" style="fill-rule:nonzero;"/><path id="path52026" d="M35.806,8.379c1.683,-2.887 12.481,-4.3 13.447,-3.737c0.6,0.35 -7.066,3.594 -8.747,6.477c-1.687,2.894 -0.754,11.204 -1.355,10.853c-0.965,-0.563 -5.03,-10.703 -3.345,-13.593Z" style="fill-rule:nonzero;"/><path id="path52028" d="M33.239,52.357c-1.683,2.887 -12.481,4.3 -13.447,3.737c-0.6,-0.35 7.067,-3.594 8.747,-6.477c1.687,-2.894 0.754,-11.204 1.355,-10.853c0.965,0.563 5.03,10.703 3.345,13.593Z" style="fill-rule:nonzero;"/><path id="path52030" d="M28.208,9.266c0.594,-3.288 10.257,-8.31 11.358,-8.111c0.684,0.124 -5.411,5.795 -6.004,9.079c-0.596,3.296 3.123,10.785 2.439,10.662c-1.1,-0.199 -8.388,-8.338 -7.793,-11.63Z" style="fill-rule:nonzero;"/><path id="path52032" d="M40.837,51.47c-0.594,3.288 -10.257,8.31 -11.358,8.111c-0.684,-0.124 5.411,-5.794 6.005,-9.079c0.595,-3.296 -3.124,-10.785 -2.44,-10.661c1.1,0.198 8.388,8.337 7.793,11.629Z" style="fill-rule:nonzero;"/><path id="path52034" d="M21.371,12.698c-0.566,-3.293 6.797,-11.316 7.899,-11.506c0.685,-0.117 -3.103,7.296 -2.537,10.585c0.568,3.3 6.625,9.066 5.939,9.184c-1.102,0.189 -10.733,-4.966 -11.301,-8.263Z" style="fill-rule:nonzero;"/><path id="path52036" d="M47.674,48.038c0.566,3.292 -6.797,11.316 -7.899,11.506c-0.685,0.117 3.103,-7.296 2.537,-10.585c-0.568,-3.3 -6.625,-9.066 -5.939,-9.184c1.102,-0.19 10.733,4.966 11.301,8.263Z" style="fill-rule:nonzero;"/><path id="path52038" d="M16.121,18.262c-1.658,-2.901 2.516,-12.959 3.487,-13.514c0.604,-0.345 -0.42,7.917 1.236,10.814c1.663,2.907 9.326,6.254 8.722,6.6c-0.97,0.554 -11.784,-0.996 -13.445,-3.9Z" style="fill-rule:nonzero;"/><path id="path52040" d="M52.924,42.474c1.659,2.901 -2.516,12.959 -3.487,13.514c-0.604,0.345 0.42,-7.917 -1.236,-10.814c-1.663,-2.907 -9.326,-6.254 -8.722,-6.6c0.97,-0.554 11.784,0.996 13.445,3.9Z" style="fill-rule:nonzero;"/><path id="path52042" d="M13.09,25.285c-2.55,-2.158 -2.067,-13.037 -1.345,-13.891c0.449,-0.53 2.313,7.583 4.86,9.739c2.557,2.163 10.903,2.687 10.453,3.219c-0.722,0.853 -11.414,3.094 -13.968,0.933Z" style="fill-rule:nonzero;"/><path id="path52044" d="M55.955,35.451c2.55,2.158 2.067,13.037 1.345,13.891c-0.449,0.53 -2.313,-7.583 -4.86,-9.739c-2.557,-2.163 -10.903,-2.688 -10.453,-3.219c0.722,-0.853 11.414,-3.095 13.968,-0.933Z" style="fill-rule:nonzero;"/><path id="path52046" d="M12.644,32.922c-3.134,-1.155 -6.402,-11.544 -6.014,-12.593c0.24,-0.652 4.766,6.335 7.897,7.489c3.143,1.159 11.164,-1.203 10.924,-0.551c-0.387,1.049 -9.668,6.812 -12.807,5.655Z" style="fill-rule:nonzero;"/><path id="path52048" d="M56.401,27.814c3.134,1.155 6.402,11.544 6.014,12.593c-0.24,0.652 -4.766,-6.335 -7.897,-7.489c-3.143,-1.159 -11.164,1.203 -10.924,0.55c0.387,-1.048 9.668,-6.812 12.807,-5.654Z" style="fill-rule:nonzero;"/></g><path id="path52070" d="M95.077,45.66l3.811,0l16.198,-26.199l-4.235,-0l-13.815,22.937l-13.763,-22.937l-4.288,-0l16.092,26.199m23.902,0l3.917,0l-0,-19.392l-3.917,-0l-0,19.392m-0,-21.732l3.917,-0c-0,-1.489 0.652,-3.723 -0,-4.467c-0.653,-0.745 -3.265,-0.745 -3.917,-0c-0.653,0.744 -0,2.978 -0,4.467m10.592,21.732l3.917,0l0,-11.309c0,-3.616 4.147,-5.193 9.599,-5.547l0.395,-2.481c-4.182,0.142 -8.458,0.583 -9.994,2.71l-0.061,-2.519l-3.979,1.854l0.123,17.292m19.436,0l3.917,0l0,-17.017l6.511,0l0,-2.375l-6.511,-0l0,-7.338l-3.972,1.714l0.055,5.624l-5.583,0.046l-0.337,2.49l5.92,-0.161l0,17.017m39.885,-19.392l-3.917,-0l0,9.962c0,2.375 -0.529,3.864 -1.747,5.069c-1.641,1.525 -4.234,2.411 -7.251,2.411c-3.229,0 -5.982,-0.886 -7.305,-2.446c-0.9,-0.993 -1.377,-2.553 -1.377,-4.538l0,-10.458l-3.917,-0l0,10.458c0,2.872 0.741,4.893 2.277,6.311c2.17,2.02 5.663,3.084 10.004,3.084c4.499,-0 7.358,-1.064 9.316,-3.474l0,3.013l3.917,0l0,-19.392m36.2,-0l-3.917,-0l-0,3.439c-2.859,-2.695 -6.405,-3.9 -11.434,-3.9c-8.681,-0 -15.245,4.396 -15.245,10.21c0,5.779 6.617,10.104 15.51,10.104c4.922,-0 8.098,-1.099 11.169,-3.864l-0,3.403l3.917,0l-0,-19.392m-15.245,1.95c6.352,-0 11.328,3.332 11.328,7.657c-0,4.396 -4.87,7.835 -11.116,7.835c-6.564,0 -11.593,-3.439 -11.593,-7.87c0,-4.219 5.082,-7.622 11.381,-7.622m21.934,17.442l3.917,0l0,-26.199l-3.917,-0l0,26.199m10.593,0l3.917,0l0,-11.309c0,-3.864 2.912,-6.133 7.782,-6.133c2.382,-0 4.605,0.638 6.034,1.772c1.27,0.993 1.8,2.34 1.8,4.361l-0,11.309l3.917,0l-0,-11.238c-0,-1.879 0.423,-3.085 1.376,-4.006c1.376,-1.418 3.811,-2.234 6.564,-2.234c2.541,0 4.764,0.674 6.087,1.844c1.059,0.992 1.588,2.446 1.588,4.396l0,11.238l3.917,0l0,-11.522c0,-2.552 -0.688,-4.219 -2.329,-5.601c-2.011,-1.773 -5.293,-2.766 -9.052,-2.766c-4.499,0 -7.622,1.17 -10.057,3.758c-2.276,-2.588 -5.134,-3.722 -9.475,-3.722c-3.652,-0 -5.929,0.744 -8.152,2.694l0,-2.233l-3.917,-0l0,19.392m49.697,0l3.917,0l-0,-19.392l-3.917,-0l-0,19.392m-0,-21.732l3.917,-0c-0,-1.489 0.653,-3.723 -0,-4.467c-0.653,-0.745 -3.265,-0.745 -3.917,-0c-0.653,0.744 -0,2.978 -0,4.467m10.592,21.732l3.918,0l-0,-10.671c-0,-2.163 0.423,-3.297 1.535,-4.396c1.535,-1.489 4.234,-2.375 7.304,-2.375c2.859,-0 5.453,0.78 7.041,2.091c1.376,1.206 1.905,2.624 1.905,5.176l0,10.175l3.917,0l0,-10.175c0,-3.261 -0.688,-4.998 -2.541,-6.665c-2.276,-1.914 -5.769,-3.013 -9.845,-3.013c-3.811,-0 -6.882,0.992 -9.316,2.978l-0,-2.517l-3.918,-0l0,19.392" style="fill-rule:nonzero;"/></g></g></svg>