<?xml version="1.0" encoding="UTF-8" standalone="no"?>
<svg
   xmlns:dc="http://purl.org/dc/elements/1.1/"
   xmlns:cc="http://creativecommons.org/ns#"
   xmlns:rdf="http://www.w3.org/1999/02/22-rdf-syntax-ns#"
   xmlns:svg="http://www.w3.org/2000/svg"
   xmlns="http://www.w3.org/2000/svg"
   xmlns:sodipodi="http://sodipodi.sourceforge.net/DTD/sodipodi-0.dtd"
   xmlns:inkscape="http://www.inkscape.org/namespaces/inkscape"
   version="1.0"
   width="74.119736mm"
   height="13.097264mm"
   id="svg11600"
   viewBox="0 0 280.13759 49.501476"
   sodipodi:docname="virtualmin.svg"
   inkscape:version="1.0 (4035a4fb49, 2020-05-01)">
  <sodipodi:namedview
     inkscape:document-rotation="0"
     pagecolor="#ffffff"
     bordercolor="#666666"
     borderopacity="1"
     objecttolerance="10"
     gridtolerance="10"
     guidetolerance="10"
     inkscape:pageopacity="0"
     inkscape:pageshadow="2"
     inkscape:window-width="2560"
     inkscape:window-height="1413"
     id="namedview28"
     showgrid="false"
     inkscape:zoom="6.1210959"
     inkscape:cx="131.0906"
     inkscape:cy="8.8149159"
     inkscape:window-x="0"
     inkscape:window-y="0"
     inkscape:window-maximized="1"
     inkscape:current-layer="g3388"
     fit-margin-top="0"
     fit-margin-left="0"
     fit-margin-right="0"
     fit-margin-bottom="0" />
  <metadata
     id="metadata2187">
    <rdf:RDF>
      <cc:Work
         rdf:about="">
        <dc:format>image/svg+xml</dc:format>
        <dc:type
           rdf:resource="http://purl.org/dc/dcmitype/StillImage" />
        <dc:title></dc:title>
      </cc:Work>
    </rdf:RDF>
  </metadata>
  <defs
     id="defs3" />
  <g
     id="g3388"
     transform="translate(-234.91215,-81.664959)">
    <path
       id="path52016"
       style="fill:#00aa00;fill-opacity:0.965427;fill-rule:nonzero;stroke:none;stroke-width:0.15537;stroke-linecap:round;stroke-linejoin:miter;stroke-miterlimit:4;stroke-opacity:1"
       d="m 243.34872,114.78756 c -2.83017,-0.0118 -8.44071,-7.33463 -8.43657,-8.282 0.002,-0.58882 5.62953,3.66174 8.45669,3.67346 2.83688,0.0118 8.538,-4.19255 8.53543,-3.60299 -0.004,0.94663 -5.72167,8.22329 -8.55555,8.21153 z" />
    <path
       d="m 276.69914,98.043829 c 2.83014,0.01172 8.44068,7.334641 8.43655,8.281991 -0.002,0.58881 -5.62953,-3.66173 -8.4567,-3.67346 -2.83687,-0.0118 -8.53799,4.19255 -8.53542,3.60299 0.004,-0.94662 5.72167,-8.223291 8.55557,-8.211521 z"
       style="fill:#0d4dd4;fill-opacity:0.965427;fill-rule:nonzero;stroke:none;stroke-width:0.15537;stroke-linecap:round;stroke-linejoin:miter;stroke-miterlimit:4;stroke-opacity:1"
       id="path52014" />
    <path
       d="m 272.83014,92.845451 c 2.66349,-0.956945 10.44027,4.005409 10.76038,4.897076 0.19899,0.554161 -6.54241,-1.51553 -9.20309,-0.559572 -2.66981,0.959195 -6.58914,6.859865 -6.78837,6.304985 -0.31987,-0.89098 2.56406,-9.684289 5.23108,-10.642489 z"
       style="fill:#0d4dd4;fill-opacity:0.965427;fill-rule:nonzero;stroke:none;stroke-width:0.15537;stroke-linecap:round;stroke-linejoin:miter;stroke-miterlimit:4;stroke-opacity:1"
       id="path52018" />
    <path
       d="m 247.21771,119.98592 c -2.66351,0.95696 -10.44027,-4.0054 -10.76039,-4.89706 -0.19898,-0.55416 6.54242,1.51552 9.20309,0.55957 2.6698,-0.95921 6.58914,-6.85987 6.78837,-6.30498 0.31988,0.89093 -2.56406,9.68427 -5.23107,10.64247 z"
       style="fill:#0d4dd4;fill-opacity:0.965427;fill-rule:nonzero;stroke:none;stroke-width:0.15537;stroke-linecap:round;stroke-linejoin:miter;stroke-miterlimit:4;stroke-opacity:1"
       id="path52020" />
    <path
       d="m 267.41655,89.283851 c 2.17555,-1.810203 11.18055,0.19308 11.78632,0.92147 0.37654,0.452702 -6.66617,0.813522 -8.83946,2.621822 -2.18071,1.814491 -3.84554,8.699807 -4.22254,8.246517 -0.60531,-0.72783 -0.90279,-9.977229 1.27568,-11.789809 z"
       style="fill:#0d4dd4;fill-opacity:0.965427;fill-rule:nonzero;stroke:none;stroke-width:0.15537;stroke-linecap:round;stroke-linejoin:miter;stroke-miterlimit:4;stroke-opacity:1"
       id="path52022" />
    <path
       d="m 252.63131,123.54753 c -2.17556,1.8102 -11.18056,-0.19309 -11.78635,-0.92144 -0.37652,-0.45276 6.66619,-0.81353 8.83947,-2.62186 2.18071,-1.81447 3.84554,-8.69979 4.22255,-8.2465 0.60529,0.72783 0.90278,9.97721 -1.27567,11.7898 z"
       style="fill:#0d4dd4;fill-opacity:0.965427;fill-rule:nonzero;stroke:none;stroke-width:0.15537;stroke-linecap:round;stroke-linejoin:miter;stroke-miterlimit:4;stroke-opacity:1"
       id="path52024" />
    <path
       d="m 261.11128,87.78862 c 1.42522,-2.445139 10.57233,-3.642565 11.39069,-3.165284 0.50865,0.296634 -5.98592,3.044429 -7.40966,5.48698 -1.42862,2.450906 -0.63811,9.490392 -1.14741,9.193384 -0.81775,-0.476899 -4.26075,-9.066754 -2.83362,-11.51508 z"
       style="fill:#0d4dd4;fill-opacity:0.965427;fill-rule:nonzero;stroke:none;stroke-width:0.15537;stroke-linecap:round;stroke-linejoin:miter;stroke-miterlimit:4;stroke-opacity:1"
       id="path52026" />
    <path
       d="m 258.93655,125.04275 c -1.42521,2.44514 -10.5723,3.64259 -11.39069,3.16529 -0.50864,-0.29658 5.98593,-3.04439 7.40967,-5.48701 1.42861,-2.45085 0.63813,-9.49035 1.14742,-9.19335 0.81774,0.4769 4.26076,9.06678 2.8336,11.51507 z"
       style="fill:#0d4dd4;fill-opacity:0.965427;fill-rule:nonzero;stroke:none;stroke-width:0.15537;stroke-linecap:round;stroke-linejoin:miter;stroke-miterlimit:4;stroke-opacity:1"
       id="path52028" />
    <path
       d="m 254.67486,88.540057 c 0.50301,-2.785125 8.68891,-7.038822 9.62118,-6.870236 0.57942,0.104776 -4.58368,4.908135 -5.08615,7.690339 -0.50419,2.79172 2.64625,9.136295 2.06608,9.031401 -0.93151,-0.168468 -7.1048,-7.062705 -6.60111,-9.851504 z"
       style="fill:#0d4dd4;fill-opacity:0.965427;fill-rule:nonzero;stroke:none;stroke-width:0.15537;stroke-linecap:round;stroke-linejoin:miter;stroke-miterlimit:4;stroke-opacity:1"
       id="path52030" />
    <path
       d="m 265.37298,124.29131 c -0.50301,2.78511 -8.68892,7.03885 -9.62117,6.87026 -0.57943,-0.10471 4.58369,-4.90813 5.08615,-7.69033 0.5042,-2.79172 -2.64625,-9.13631 -2.06609,-9.03142 0.93151,0.16846 7.1048,7.06269 6.60111,9.85149 z"
       style="fill:#0d4dd4;fill-opacity:0.965427;fill-rule:nonzero;stroke:none;stroke-width:0.15537;stroke-linecap:round;stroke-linejoin:miter;stroke-miterlimit:4;stroke-opacity:1"
       id="path52032" />
    <path
       d="m 248.88363,91.447525 c -0.47991,-2.789188 5.75748,-9.586105 6.69118,-9.746531 0.58031,-0.09973 -2.62858,6.179838 -2.14918,8.96612 0.48103,2.795789 5.61147,7.680233 5.03041,7.780085 -0.93297,0.160292 -9.09191,-4.206785 -9.57241,-6.999674 z"
       style="fill:#0d4dd4;fill-opacity:0.965427;fill-rule:nonzero;stroke:none;stroke-width:0.15537;stroke-linecap:round;stroke-linejoin:miter;stroke-miterlimit:4;stroke-opacity:1"
       id="path52034" />
    <path
       d="m 271.1642,121.38376 c 0.47991,2.78916 -5.75747,9.58611 -6.69118,9.7465 -0.58031,0.0998 2.62857,-6.17981 2.14918,-8.96605 -0.48103,-2.79581 -5.61147,-7.68025 -5.03042,-7.78012 0.93298,-0.1603 9.09192,4.20679 9.57242,6.99967 z"
       style="fill:#0d4dd4;fill-opacity:0.965427;fill-rule:nonzero;stroke:none;stroke-width:0.15537;stroke-linecap:round;stroke-linejoin:miter;stroke-miterlimit:4;stroke-opacity:1"
       id="path52036" />
    <path
       d="m 244.43606,96.160421 c -1.40492,-2.456853 2.13163,-10.977183 2.95415,-11.44727 0.51121,-0.292185 -0.35642,6.706185 1.04703,9.160456 1.40824,2.462657 7.89985,5.297828 7.388,5.590385 -0.82187,0.469734 -9.98242,-0.843453 -11.38918,-3.303571 z"
       style="fill:#0d4dd4;fill-opacity:0.965427;fill-rule:nonzero;stroke:none;stroke-width:0.15537;stroke-linecap:round;stroke-linejoin:miter;stroke-miterlimit:4;stroke-opacity:1"
       id="path52038" />
    <path
       d="m 275.61177,116.67087 c 1.40491,2.45685 -2.13162,10.97714 -2.95415,11.44723 -0.51121,0.29222 0.35642,-6.70613 -1.04705,-9.16042 -1.40822,-2.46265 -7.89983,-5.29783 -7.38797,-5.5904 0.82187,-0.46971 9.98241,0.84348 11.38917,3.30359 z"
       style="fill:#0d4dd4;fill-opacity:0.965427;fill-rule:nonzero;stroke:none;stroke-width:0.15537;stroke-linecap:round;stroke-linejoin:miter;stroke-miterlimit:4;stroke-opacity:1"
       id="path52040" />
    <path
       d="m 241.86862,102.11025 c -2.16047,-1.82819 -1.75133,-11.044245 -1.13918,-11.767296 0.38044,-0.449415 1.95872,6.423649 4.11693,8.249903 2.16559,1.832493 9.2354,2.276433 8.85448,2.726413 -0.61167,0.72249 -9.66888,2.6216 -11.83223,0.79098 z"
       style="fill:#0d4dd4;fill-opacity:0.965427;fill-rule:nonzero;stroke:none;stroke-width:0.15537;stroke-linecap:round;stroke-linejoin:miter;stroke-miterlimit:4;stroke-opacity:1"
       id="path52042" />
    <path
       d="m 278.17919,110.72105 c 2.16048,1.82816 1.75136,11.04421 1.13921,11.76727 -0.38044,0.44943 -1.95874,-6.42362 -4.11694,-8.24989 -2.1656,-1.8325 -9.23539,-2.27643 -8.85447,-2.72642 0.61164,-0.72248 9.66888,-2.62157 11.8322,-0.79096 z"
       style="fill:#0d4dd4;fill-opacity:0.965427;fill-rule:nonzero;stroke:none;stroke-width:0.15537;stroke-linecap:round;stroke-linejoin:miter;stroke-miterlimit:4;stroke-opacity:1"
       id="path52044" />
    <path
       d="m 241.49102,108.57938 c -2.65548,-0.97902 -5.4231,-9.779196 -5.09518,-10.66802 0.20381,-0.55242 4.03762,5.36633 6.6903,6.3443 2.66174,0.98131 9.45701,-1.01955 9.25296,-0.46643 -0.32765,0.88813 -8.18913,5.77045 -10.84808,4.79015 z"
       style="fill:#0d4dd4;fill-opacity:0.965427;fill-rule:nonzero;stroke:none;stroke-width:0.15537;stroke-linecap:round;stroke-linejoin:miter;stroke-miterlimit:4;stroke-opacity:1"
       id="path52046" />
    <path
       d="m 278.55683,104.25193 c 2.65547,0.97898 5.42306,9.7792 5.09515,10.668 -0.20379,0.55243 -4.03762,-5.36633 -6.69029,-6.34429 -2.66175,-0.98131 -9.45701,1.01954 -9.25296,0.46642 0.32766,-0.88813 8.18913,-5.77044 10.8481,-4.79013 z"
       style="fill:#0d4dd4;fill-opacity:0.965427;fill-rule:nonzero;stroke:none;stroke-width:0.15537;stroke-linecap:round;stroke-linejoin:miter;stroke-miterlimit:4;stroke-opacity:1"
       id="path52048" />
    <path
       d="m 303.69558,119.74232 h 3.22846 L 320.645,97.549089 h -3.58718 L 305.35466,116.97941 293.69632,97.549089 h -3.63202 l 13.63128,22.193231 m 20.24691,0 h 3.31812 v -16.42719 h -3.31812 v 16.42719 m 0,-18.40928 h 3.31812 c 0,-1.2613 0.55303,-3.153279 0,-3.783951 -0.55304,-0.630644 -2.7651,-0.630644 -3.31812,0 -0.55303,0.630672 0,2.522651 0,3.783951 m 8.97318,18.40928 h 3.31815 v -9.58001 c 0,-3.06323 3.51239,-4.39877 8.13087,-4.69909 l 0.33464,-2.1015 c -3.54233,0.12012 -7.16516,0.49398 -8.46551,2.29585 l -0.0522,-2.13348 -3.37015,1.57043 0.10428,14.6478 m 16.46407,0 h 3.31814 v -14.41509 h 5.51528 v -2.0121 h -5.51528 v -6.216092 l -3.36481,1.452347 0.0466,4.763745 -4.7294,0.0394 -0.28564,2.10868 5.01504,-0.136 v 14.41509 m 33.78658,-16.42719 h -3.31815 v 8.43882 c 0,2.0121 -0.4484,3.27344 -1.47971,4.29451 -1.39004,1.29135 -3.58718,2.04213 -6.14304,2.04213 -2.73522,0 -5.0669,-0.75078 -6.18789,-2.07218 -0.76229,-0.84088 -1.16585,-2.16226 -1.16585,-3.84402 v -8.85926 h -3.31817 v 8.85926 c 0,2.43256 0.62777,4.14435 1.92812,5.34559 1.83841,1.71183 4.79785,2.61276 8.4747,2.61276 3.81138,0 6.23272,-0.90093 7.8918,-2.94309 v 2.55267 h 3.31814 v -16.42719 m 30.66441,0 h -3.31815 v 2.91303 c -2.42133,-2.28237 -5.42561,-3.30346 -9.68538,-3.30346 -7.3537,0 -12.91384,3.72393 -12.91384,8.64906 0,4.89513 5.60498,8.55898 13.13804,8.55898 4.17009,0 6.86049,-0.93099 9.46118,-3.27344 v 2.88302 h 3.31815 v -16.42719 m -12.91384,1.65171 c 5.38075,0 9.59569,2.82296 9.59569,6.48679 0,3.7239 -4.12526,6.63696 -9.41633,6.63696 -5.56012,0 -9.8199,-2.91306 -9.8199,-6.66696 0,-3.57376 4.30462,-6.45679 9.64054,-6.45679 m 18.58064,14.77548 h 3.31814 V 97.549089 h -3.31814 v 22.193231 m 8.9732,0 h 3.31813 v -9.58001 c 0,-3.27346 2.46619,-5.19547 6.59145,-5.19547 2.01779,0 3.90105,0.54057 5.11171,1.50158 1.07616,0.84088 1.52457,1.98207 1.52457,3.69389 v 9.58001 h 3.31813 v -9.51997 c 0,-1.59167 0.35872,-2.61275 1.16582,-3.39356 1.16585,-1.20126 3.22848,-1.89197 5.56014,-1.89197 2.15232,0 4.03558,0.57059 5.15657,1.56163 0.89679,0.8409 1.34519,2.07216 1.34519,3.7239 v 9.51997 h 3.31814 v -9.76021 c 0,-2.16227 -0.58292,-3.57374 -1.97293,-4.74497 -1.70393,-1.50158 -4.48399,-2.34245 -7.66761,-2.34245 -3.81137,0 -6.45692,0.99103 -8.51954,3.18333 -1.92813,-2.1923 -4.34947,-3.15332 -8.02633,-3.15332 -3.09393,0 -5.02203,0.63068 -6.90531,2.28239 v -1.89196 h -3.31813 v 16.42719 m 42.09767,0 h 3.31814 v -16.42719 h -3.31814 v 16.42719 m 0,-18.40928 h 3.31814 c 0,-1.2613 0.55302,-3.153279 0,-3.783951 -0.55304,-0.630644 -2.76512,-0.630644 -3.31814,0 -0.55301,0.630672 0,2.522651 0,3.783951 m 8.97319,18.40928 h 3.31814 v -9.03946 c 0,-1.83193 0.35873,-2.79294 1.30036,-3.72388 1.30034,-1.26134 3.58717,-2.01214 6.18788,-2.01214 2.42134,0 4.61849,0.66069 5.96368,1.77187 1.16584,1.02106 1.61423,2.22232 1.61423,4.3846 v 8.61901 h 3.31813 v -8.61901 c 0,-2.7629 -0.5829,-4.23446 -2.15229,-5.64593 -1.92811,-1.62168 -4.88754,-2.55268 -8.34021,-2.55268 -3.22845,0 -5.82916,0.84088 -7.89178,2.52263 v -2.1322 h -3.31814 v 16.42719"
       style="font-style:normal;font-variant:normal;font-weight:normal;font-stretch:normal;font-size:138.484px;font-family:'Aharoni CLM';writing-mode:lr-tb;text-anchor:start;fill:#0d4dd4;fill-opacity:0.965427;stroke:none;stroke-width:0.372785pt;stroke-linecap:butt;stroke-linejoin:miter;stroke-opacity:1"
       id="path52070" />
    <g
       id="text11698"
       style="font-style:normal;font-variant:normal;font-weight:normal;font-stretch:normal;font-size:12px;line-height:0%;font-family:'Bitstream Vera Sans';text-align:start;writing-mode:lr-tb;text-anchor:start;fill:#1a1a1a;fill-opacity:0.965427;stroke:none;stroke-width:1pt;stroke-linecap:butt;stroke-linejoin:miter;stroke-opacity:1"
       aria-label="TM"
       transform="matrix(0.80149797,0,0,0.80149797,-77.319701,27.984013)">
      <path
         id="path28"
         style="font-style:normal;font-variant:normal;font-weight:normal;font-stretch:normal;font-size:12px;line-height:125%;font-family:'Bitstream Vera Sans';text-align:start;writing-mode:lr-tb;text-anchor:start;fill:#1a1a1a;fill-opacity:0.965427"
         d="m 722.52515,78.593857 h 7.40039 v 0.996094 h -3.10547 v 7.751953 h -1.18945 v -7.751953 h -3.10547 z" />
      <path
         id="path30"
         style="font-style:normal;font-variant:normal;font-weight:normal;font-stretch:normal;font-size:12px;line-height:125%;font-family:'Bitstream Vera Sans';text-align:start;writing-mode:lr-tb;text-anchor:start;fill:#1a1a1a;fill-opacity:0.965427"
         d="m 731.07397,78.593857 h 1.76368 l 2.23242,5.953125 2.24414,-5.953125 h 1.76367 v 8.748047 h -1.1543 v -7.681641 l -2.25586,6 h -1.18945 l -2.25586,-6 v 7.681641 h -1.14844 z" />
    </g>
  </g>
</svg>
