<svg width="100%" height="100%" viewBox="0 0 333 61" version="1.1" xmlns="http://www.w3.org/2000/svg" xmlns:xlink="http://www.w3.org/1999/xlink" xml:space="preserve" xmlns:serif="http://www.serif.com/" style="fill-rule:evenodd;clip-rule:evenodd;stroke-linejoin:round;stroke-miterlimit:2;"><g id="g3388"><g id="g1146"><g><path id="path52016" d="M14.837,40.251c-3.341,-0.014 -9.964,-8.659 -9.959,-9.777c0.003,-0.695 6.646,4.323 9.983,4.337c3.349,0.014 10.079,-4.95 10.076,-4.254c-0.005,1.118 -6.754,9.708 -10.1,9.694Z" style="fill:#111;fill-rule:nonzero;"/><path id="path52014" d="M54.208,20.485c3.341,0.014 9.964,8.659 9.959,9.777c-0.003,0.695 -6.646,-4.323 -9.983,-4.337c-3.349,-0.014 -10.079,4.95 -10.076,4.254c0.005,-1.118 6.754,-9.708 10.1,-9.694Z" style="fill:#111;fill-rule:nonzero;"/><path id="path52018" d="M49.64,14.348c3.145,-1.129 12.325,4.729 12.703,5.781c0.235,0.655 -7.723,-1.789 -10.864,-0.66c-3.152,1.132 -7.779,8.098 -8.014,7.443c-0.378,-1.052 3.027,-11.433 6.175,-12.564Z" style="fill:#111;fill-rule:nonzero;"/><path id="path52020" d="M19.405,46.388c-3.144,1.129 -12.325,-4.729 -12.703,-5.781c-0.235,-0.654 7.723,1.789 10.864,0.66c3.152,-1.132 7.779,-8.098 8.014,-7.443c0.378,1.052 -3.027,11.433 -6.175,12.564Z" style="fill:#111;fill-rule:nonzero;"/><path id="path52022" d="M43.25,10.144c2.568,-2.137 13.198,0.228 13.913,1.088c0.445,0.534 -7.869,0.96 -10.435,3.095c-2.574,2.142 -4.539,10.27 -4.984,9.735c-0.715,-0.859 -1.066,-11.778 1.506,-13.918Z" style="fill:#111;fill-rule:nonzero;"/><path id="path52024" d="M25.796,50.592c-2.569,2.137 -13.199,-0.228 -13.914,-1.088c-0.445,-0.534 7.869,-0.96 10.435,-3.095c2.574,-2.142 4.539,-10.27 4.984,-9.735c0.715,0.86 1.066,11.778 -1.505,13.918Z" style="fill:#111;fill-rule:nonzero;"/><path id="path52026" d="M35.806,8.379c1.683,-2.887 12.481,-4.3 13.447,-3.737c0.6,0.35 -7.066,3.594 -8.747,6.477c-1.687,2.894 -0.754,11.204 -1.355,10.853c-0.965,-0.563 -5.03,-10.703 -3.345,-13.593Z" style="fill:#111;fill-rule:nonzero;"/><path id="path52028" d="M33.239,52.357c-1.683,2.887 -12.481,4.3 -13.447,3.737c-0.6,-0.35 7.067,-3.594 8.747,-6.477c1.687,-2.894 0.754,-11.204 1.355,-10.853c0.965,0.563 5.03,10.703 3.345,13.593Z" style="fill:#111;fill-rule:nonzero;"/><path id="path52030" d="M28.208,9.266c0.594,-3.288 10.257,-8.31 11.358,-8.111c0.684,0.124 -5.411,5.795 -6.004,9.079c-0.596,3.296 3.123,10.785 2.439,10.662c-1.1,-0.199 -8.388,-8.338 -7.793,-11.63Z" style="fill:#111;fill-rule:nonzero;"/><path id="path52032" d="M40.837,51.47c-0.594,3.288 -10.257,8.31 -11.358,8.111c-0.684,-0.124 5.411,-5.794 6.005,-9.079c0.595,-3.296 -3.124,-10.785 -2.44,-10.661c1.1,0.198 8.388,8.337 7.793,11.629Z" style="fill:#111;fill-rule:nonzero;"/><path id="path52034" d="M21.371,12.698c-0.566,-3.293 6.797,-11.316 7.899,-11.506c0.685,-0.117 -3.103,7.296 -2.537,10.585c0.568,3.3 6.625,9.066 5.939,9.184c-1.102,0.189 -10.733,-4.966 -11.301,-8.263Z" style="fill:#111;fill-rule:nonzero;"/><path id="path52036" d="M47.674,48.038c0.566,3.292 -6.797,11.316 -7.899,11.506c-0.685,0.117 3.103,-7.296 2.537,-10.585c-0.568,-3.3 -6.625,-9.066 -5.939,-9.184c1.102,-0.19 10.733,4.966 11.301,8.263Z" style="fill:#111;fill-rule:nonzero;"/><path id="path52038" d="M16.121,18.262c-1.658,-2.901 2.516,-12.959 3.487,-13.514c0.604,-0.345 -0.42,7.917 1.236,10.814c1.663,2.907 9.326,6.254 8.722,6.6c-0.97,0.554 -11.784,-0.996 -13.445,-3.9Z" style="fill:#111;fill-rule:nonzero;"/><path id="path52040" d="M52.924,42.474c1.659,2.901 -2.516,12.959 -3.487,13.514c-0.604,0.345 0.42,-7.917 -1.236,-10.814c-1.663,-2.907 -9.326,-6.254 -8.722,-6.6c0.97,-0.554 11.784,0.996 13.445,3.9Z" style="fill:#111;fill-rule:nonzero;"/><path id="path52042" d="M13.09,25.285c-2.55,-2.158 -2.067,-13.037 -1.345,-13.891c0.449,-0.53 2.313,7.583 4.86,9.739c2.557,2.163 10.903,2.687 10.453,3.219c-0.722,0.853 -11.414,3.094 -13.968,0.933Z" style="fill:#111;fill-rule:nonzero;"/><path id="path52044" d="M55.955,35.451c2.55,2.158 2.067,13.037 1.345,13.891c-0.449,0.53 -2.313,-7.583 -4.86,-9.739c-2.557,-2.163 -10.903,-2.688 -10.453,-3.219c0.722,-0.853 11.414,-3.095 13.968,-0.933Z" style="fill:#111;fill-rule:nonzero;"/><path id="path52046" d="M12.644,32.922c-3.134,-1.155 -6.402,-11.544 -6.014,-12.593c0.24,-0.652 4.766,6.335 7.897,7.489c3.143,1.159 11.164,-1.203 10.924,-0.551c-0.387,1.049 -9.668,6.812 -12.807,5.655Z" style="fill:#111;fill-rule:nonzero;"/><path id="path52048" d="M56.401,27.814c3.134,1.155 6.402,11.544 6.014,12.593c-0.24,0.652 -4.766,-6.335 -7.897,-7.489c-3.143,-1.159 -11.164,1.203 -10.924,0.55c0.387,-1.048 9.668,-6.812 12.807,-5.654Z" style="fill:#111;fill-rule:nonzero;"/></g><path d="M143.423,26.325l-0.001,-0.272l5.321,-0.044l-0.052,-5.362c-0.001,-0.105 0.061,-0.201 0.158,-0.243l3.972,-1.714c0.08,-0.035 0.173,-0.027 0.247,0.021c0.073,0.049 0.117,0.131 0.117,0.219l0,7.077l6.25,-0c0.144,-0 0.261,0.116 0.261,0.261l0,2.375c0,0.144 -0.117,0.261 -0.261,0.261l-6.25,0l0,16.756c0,0.144 -0.116,0.261 -0.261,0.261l-3.917,0c-0.144,0 -0.261,-0.117 -0.261,-0.261l-0,-16.749l-5.647,0.154c-2.682,0.174 -5.045,0.645 -6.736,1.521c-1.622,0.841 -2.613,2.058 -2.613,3.765l-0,11.309c-0,0.144 -0.117,0.261 -0.262,0.261l-3.917,0c-0.143,0 -0.26,-0.116 -0.261,-0.259l-0.123,-17.292c-0.001,-0.102 0.058,-0.195 0.151,-0.238l3.978,-1.854c0.08,-0.038 0.174,-0.032 0.248,0.014c0.075,0.047 0.122,0.128 0.124,0.216l0.046,1.852c0.649,-0.616 1.556,-1.071 2.636,-1.403c1.971,-0.606 4.522,-0.806 7.044,-0.893l0.004,0.261c0.002,-0 0.003,-0 0.005,-0Zm-48.569,19.472l-16.091,-26.199c-0.05,-0.081 -0.052,-0.182 -0.006,-0.265c0.046,-0.082 0.134,-0.133 0.228,-0.133l4.288,-0c0.092,-0 0.177,0.048 0.224,0.127l13.539,22.564l13.591,-22.565c0.048,-0.078 0.133,-0.126 0.224,-0.126l4.235,-0c0.095,-0 0.182,0.051 0.228,0.134c0.046,0.082 0.044,0.184 -0.006,0.264l-16.198,26.199c-0.047,0.077 -0.131,0.124 -0.222,0.124l-3.811,0c-0.091,0 -0.175,-0.047 -0.223,-0.124Zm23.863,-0.137l0,-19.392c0,-0.145 0.117,-0.261 0.262,-0.261l3.917,-0c0.144,-0 0.261,0.116 0.261,0.261l-0,19.392c-0,0.144 -0.117,0.261 -0.261,0.261l-3.917,0c-0.145,0 -0.262,-0.117 -0.262,-0.261Zm0,-21.732c0,-0.89 -0.235,-2.046 -0.281,-2.989c-0.036,-0.713 0.051,-1.314 0.346,-1.65c0.156,-0.178 0.401,-0.326 0.706,-0.432c0.408,-0.143 0.928,-0.216 1.449,-0.216c0.521,0 1.041,0.073 1.449,0.216c0.305,0.106 0.55,0.254 0.706,0.432c0.295,0.336 0.382,0.937 0.346,1.65c-0.046,0.943 -0.281,2.099 -0.281,2.989c-0,0.144 -0.117,0.261 -0.261,0.261l-3.917,0c-0.145,0 -0.262,-0.117 -0.262,-0.261Zm70.436,2.34l0,19.392c0,0.144 -0.116,0.261 -0.261,0.261l-3.917,0c-0.144,0 -0.261,-0.117 -0.261,-0.261l-0,-2.319c-1.983,2.094 -4.798,3.041 -9.055,3.041c-4.419,0 -7.972,-1.097 -10.182,-3.154c-1.583,-1.462 -2.36,-3.541 -2.36,-6.502l0,-10.458c0,-0.145 0.117,-0.261 0.261,-0.261l3.917,-0c0.145,-0 0.262,0.116 0.262,0.261l-0,10.458c-0,1.907 0.444,3.409 1.308,4.363l0.006,0.006c1.286,1.516 3.968,2.354 7.106,2.354c2.94,-0 5.471,-0.853 7.071,-2.338c1.169,-1.16 1.666,-2.597 1.666,-4.881l0,-9.962c0,-0.145 0.117,-0.261 0.261,-0.261l3.917,-0c0.145,-0 0.261,0.116 0.261,0.261Zm36.2,-0l-0,19.392c-0,0.144 -0.117,0.261 -0.261,0.261l-3.917,0c-0.145,0 -0.262,-0.117 -0.262,-0.261l0,-2.828c-2.986,2.53 -6.139,3.55 -10.907,3.55c-5.411,0 -9.988,-1.589 -12.787,-4.118c-1.897,-1.715 -2.984,-3.862 -2.984,-6.247c-0,-2.398 1.078,-4.564 2.95,-6.297c2.763,-2.559 7.271,-4.174 12.556,-4.174c4.853,-0 8.345,1.113 11.172,3.572l0,-2.85c0,-0.145 0.117,-0.261 0.262,-0.261l3.917,-0c0.144,-0 0.261,0.116 0.261,0.261Zm-15.506,2.211c-3.706,-0 -6.985,1.193 -9.013,3.048c-1.321,1.208 -2.107,2.696 -2.107,4.313c0,1.701 0.778,3.248 2.108,4.494c2.038,1.91 5.361,3.115 9.224,3.115c3.67,-0 6.859,-1.204 8.82,-3.104c1.282,-1.242 2.034,-2.781 2.034,-4.47c0,-1.658 -0.768,-3.162 -2.074,-4.372c-2.003,-1.857 -5.256,-3.024 -8.992,-3.024Zm21.673,17.181l0,-26.199c0,-0.144 0.117,-0.261 0.261,-0.261l3.917,-0c0.145,-0 0.262,0.117 0.262,0.261l-0,26.199c-0,0.144 -0.117,0.261 -0.262,0.261l-3.917,0c-0.144,0 -0.261,-0.117 -0.261,-0.261Zm10.593,0l0,-19.392c0,-0.145 0.117,-0.261 0.261,-0.261l3.917,-0c0.145,-0 0.261,0.116 0.261,0.261l0.001,1.672c2.138,-1.721 4.396,-2.394 7.89,-2.394c4.312,-0 7.188,1.106 9.481,3.6c2.453,-2.496 5.586,-3.636 10.051,-3.636c3.83,0 7.172,1.023 9.222,2.829c1.699,1.432 2.42,3.155 2.42,5.799l0,11.522c0,0.144 -0.117,0.261 -0.261,0.261l-3.917,0c-0.144,0 -0.261,-0.117 -0.261,-0.261l-0,-11.238c-0,-1.862 -0.493,-3.255 -1.503,-4.203c-1.285,-1.135 -3.446,-1.776 -5.911,-1.776c-2.672,0 -5.041,0.778 -6.377,2.155l-0.005,0.005c-0.907,0.878 -1.297,2.03 -1.297,3.819l-0,11.238c-0,0.144 -0.117,0.261 -0.261,0.261l-3.917,0c-0.145,0 -0.262,-0.117 -0.262,-0.261l0,-11.309c0,-1.923 -0.49,-3.21 -1.699,-4.155l-0.001,-0.001c-1.391,-1.104 -3.556,-1.716 -5.872,-1.716c-4.69,-0 -7.521,2.151 -7.521,5.872l0,11.309c0,0.144 -0.116,0.261 -0.261,0.261l-3.917,0c-0.144,0 -0.261,-0.117 -0.261,-0.261Zm49.696,0l0,-19.392c0,-0.145 0.117,-0.261 0.262,-0.261l3.917,-0c0.144,-0 0.261,0.116 0.261,0.261l-0,19.392c-0,0.144 -0.117,0.261 -0.261,0.261l-3.917,0c-0.145,0 -0.262,-0.117 -0.262,-0.261Zm0,-21.732c0,-0.89 -0.234,-2.046 -0.281,-2.989c-0.036,-0.713 0.051,-1.314 0.346,-1.65c0.156,-0.178 0.401,-0.326 0.706,-0.432c0.408,-0.143 0.928,-0.216 1.449,-0.216c0.521,0 1.041,0.073 1.449,0.216c0.305,0.106 0.55,0.254 0.706,0.432c0.295,0.336 0.382,0.937 0.347,1.65c-0.047,0.943 -0.282,2.099 -0.282,2.989c-0,0.144 -0.117,0.261 -0.261,0.261l-3.917,0c-0.145,0 -0.262,-0.117 -0.262,-0.261Zm10.593,21.732l0,-19.392c0,-0.145 0.117,-0.261 0.261,-0.261l3.918,-0c0.144,-0 0.261,0.116 0.261,0.261l-0,1.981c2.407,-1.799 5.395,-2.703 9.055,-2.703c4.146,-0 7.698,1.127 10.014,3.074l0.006,0.006c1.908,1.716 2.627,3.501 2.627,6.859l0,10.175c0,0.144 -0.117,0.261 -0.261,0.261l-3.917,0c-0.144,0 -0.261,-0.117 -0.261,-0.261l-0,-10.175c-0,-2.451 -0.493,-3.819 -1.814,-4.977c-1.55,-1.279 -4.083,-2.029 -6.871,-2.029c-2.991,-0 -5.626,0.85 -7.122,2.301c-1.063,1.051 -1.456,2.14 -1.456,4.209l-0,10.671c-0,0.144 -0.117,0.261 -0.261,0.261l-3.918,0c-0.144,0 -0.261,-0.117 -0.261,-0.261Z" style="fill:#111;"/></g></g></svg>